# xmcd
#
# Track frame offsets:
#	150
#	13795
#	28932
#	47226
#	67972
#	71436
#	88317
#	103484
#	114297
#	136768
#	149229
#
# Disc length: 2205 seconds
#
# Revision: 1
# Processed by: cddbd v1.5.2PL0 Copyright (c) Steve Scherf et al.
# Submitted via: audiograbber 1.83.01
#
DISCID=a6089b0b
DTITLE=Jen Mize - Fear Pride and A Few Stubborn Angels
DYEAR=2014
DGENRE=Country
TTITLE0=Cottonwood Grove
TTITLE1=Shame On Me
TTITLE2=Elijah
TTITLE3=Oh, Heaven
TTITLE4=These Woods (Intro)
TTITLE5=These Woods
TTITLE6=Ghost Town
TTITLE7=Biscuits and Gravy
TTITLE8=Hell For Leather
TTITLE9=Tell Me Twice
TTITLE10=Savannah
EXTD=
EXTT0=
EXTT1=
EXTT2=
EXTT3=
EXTT4=
EXTT5=
EXTT6=
EXTT7=
EXTT8=
EXTT9=
EXTT10=
PLAYORDER=
